ISO-10303-21;
HEADER;

/* File generated by SOLIDWORKS MBD Version 2025 */

FILE_DESCRIPTION(('HOOPS Exchange Step'),'2;1');

FILE_NAME('C:\\Users\\p01609jt\\OneDrive - The University of Manchester\\Internship\\COLOURCUBE.STP',
'2026-07-03T11:34:36+01:00',
('p01609jt'),
('None'),
'HOOPS Exchange 2024.8',
'SOLIDWORKS MBD',
'None');

FILE_SCHEMA( ('AP242_MANAGED_MODEL_BASED_3D_ENGINEERING_MIM_LF {1 0 10303 442 4 1 4}') );

ENDSEC;

DATA;
#3=(NAMED_UNIT(*)PLANE_ANGLE_UNIT()SI_UNIT($,.RADIAN.));
#4=PLANE_ANGLE_MEASURE_WITH_UNIT(PLANE_ANGLE_MEASURE(0.0174532925),#3);
#5=(CONVERSION_BASED_UNIT('DEGREE',#4)NAMED_UNIT(#6)PLANE_ANGLE_UNIT());
#6=DIMENSIONAL_EXPONENTS(0.,0.,0.,0.,0.,0.,0.);
#7=(NAMED_UNIT(*)SI_UNIT($,.STERADIAN.)SOLID_ANGLE_UNIT());
#8=(LENGTH_UNIT()NAMED_UNIT(*)SI_UNIT(.MILLI.,.METRE.));
#9=UNCERTAINTY_MEASURE_WITH_UNIT(LENGTH_MEASURE(1.000000E-03),#8,'DISTANCE_ACCURACY_VALUE','Maximum Tolerance applied to model');
#10=(GEOMETRIC_REPRESENTATION_CONTEXT(3)GLOBAL_UNCERTAINTY_ASSIGNED_CONTEXT((#9))GLOBAL_UNIT_ASSIGNED_CONTEXT((#8,#5,#7))REPRESENTATION_CONTEXT('','Default'));
#12=CARTESIAN_POINT('',(0.,0.,0.));
#13=DIRECTION('',(0.,0.,1.));
#14=DIRECTION('',(1.,0.,0.));
#15=AXIS2_PLACEMENT_3D('',#12,#13,#14);
#27=CARTESIAN_POINT('',(0.,0.,40.));
#28=DIRECTION('',(0.,0.,-1.));
#29=DIRECTION('',(-1.,0.,0.));
#30=AXIS2_PLACEMENT_3D('',#27,#28,#29);
#31=PLANE('',#30);
#32=CARTESIAN_POINT('',(20.,40.,40.));
#33=VERTEX_POINT('',#32);
#34=CARTESIAN_POINT('',(20.,0.,40.));
#35=VERTEX_POINT('',#34);
#36=CARTESIAN_POINT('',(20.,40.,40.));
#37=DIRECTION('',(0.,-1.,0.));
#38=VECTOR('',#37,40.);
#39=LINE('',#36,#38);
#40=EDGE_CURVE('',#33,#35,#39,.T.);
#41=ORIENTED_EDGE('',*,*,#40,.F.);
#42=CARTESIAN_POINT('',(0.,40.,40.));
#43=VERTEX_POINT('',#42);
#44=CARTESIAN_POINT('',(20.,40.,40.));
#45=DIRECTION('',(-1.,0.,0.));
#46=VECTOR('',#45,20.);
#47=LINE('',#44,#46);
#48=EDGE_CURVE('',#33,#43,#47,.T.);
#49=ORIENTED_EDGE('',*,*,#48,.T.);
#50=CARTESIAN_POINT('',(0.,0.,40.));
#51=VERTEX_POINT('',#50);
#52=CARTESIAN_POINT('',(0.,40.,40.));
#53=DIRECTION('',(0.,-1.,0.));
#54=VECTOR('',#53,40.);
#55=LINE('',#52,#54);
#56=EDGE_CURVE('',#43,#51,#55,.T.);
#57=ORIENTED_EDGE('',*,*,#56,.T.);
#58=CARTESIAN_POINT('',(0.,0.,40.));
#59=DIRECTION('',(1.,0.,0.));
#60=VECTOR('',#59,20.);
#61=LINE('',#58,#60);
#62=EDGE_CURVE('',#51,#35,#61,.T.);
#63=ORIENTED_EDGE('',*,*,#62,.T.);
#64=EDGE_LOOP('',(#41,#49,#57,#63));
#65=FACE_BOUND('',#64,.T.);
#66=ADVANCED_FACE('',(#65),#31,.F.);
#67=CARTESIAN_POINT('',(0.,0.,40.));
#68=DIRECTION('',(0.,1.,0.));
#69=DIRECTION('',(0.,0.,1.));
#70=AXIS2_PLACEMENT_3D('',#67,#68,#69);
#71=PLANE('',#70);
#72=CARTESIAN_POINT('',(0.,0.,0.));
#73=VERTEX_POINT('',#72);
#74=CARTESIAN_POINT('',(40.,0.,0.));
#75=VERTEX_POINT('',#74);
#76=CARTESIAN_POINT('',(0.,0.,0.));
#77=DIRECTION('',(1.,0.,0.));
#78=VECTOR('',#77,40.);
#79=LINE('',#76,#78);
#80=EDGE_CURVE('',#73,#75,#79,.T.);
#81=ORIENTED_EDGE('',*,*,#80,.T.);
#82=CARTESIAN_POINT('',(40.,0.,40.));
#83=VERTEX_POINT('',#82);
#84=CARTESIAN_POINT('',(40.,0.,40.));
#85=DIRECTION('',(0.,0.,-1.));
#86=VECTOR('',#85,40.);
#87=LINE('',#84,#86);
#88=EDGE_CURVE('',#83,#75,#87,.T.);
#89=ORIENTED_EDGE('',*,*,#88,.F.);
#90=CARTESIAN_POINT('',(20.,0.,40.));
#91=DIRECTION('',(1.,0.,0.));
#92=VECTOR('',#91,20.);
#93=LINE('',#90,#92);
#94=EDGE_CURVE('',#35,#83,#93,.T.);
#95=ORIENTED_EDGE('',*,*,#94,.F.);
#96=ORIENTED_EDGE('',*,*,#62,.F.);
#97=CARTESIAN_POINT('',(0.,0.,40.));
#98=DIRECTION('',(0.,0.,-1.));
#99=VECTOR('',#98,40.);
#100=LINE('',#97,#99);
#101=EDGE_CURVE('',#51,#73,#100,.T.);
#102=ORIENTED_EDGE('',*,*,#101,.T.);
#103=EDGE_LOOP('',(#81,#89,#95,#96,#102));
#104=FACE_BOUND('',#103,.T.);
#105=ADVANCED_FACE('',(#104),#71,.F.);
#106=CARTESIAN_POINT('',(0.,0.,40.));
#107=DIRECTION('',(1.,0.,0.));
#108=DIRECTION('',(0.,0.,-1.));
#109=AXIS2_PLACEMENT_3D('',#106,#107,#108);
#110=PLANE('',#109);
#111=CARTESIAN_POINT('',(0.,40.,0.));
#112=VERTEX_POINT('',#111);
#113=CARTESIAN_POINT('',(0.,40.,0.));
#114=DIRECTION('',(0.,-1.,0.));
#115=VECTOR('',#114,40.);
#116=LINE('',#113,#115);
#117=EDGE_CURVE('',#112,#73,#116,.T.);
#118=ORIENTED_EDGE('',*,*,#117,.T.);
#119=ORIENTED_EDGE('',*,*,#101,.F.);
#120=ORIENTED_EDGE('',*,*,#56,.F.);
#121=CARTESIAN_POINT('',(0.,40.,40.));
#122=DIRECTION('',(0.,0.,-1.));
#123=VECTOR('',#122,40.);
#124=LINE('',#121,#123);
#125=EDGE_CURVE('',#43,#112,#124,.T.);
#126=ORIENTED_EDGE('',*,*,#125,.T.);
#127=EDGE_LOOP('',(#118,#119,#120,#126));
#128=FACE_BOUND('',#127,.T.);
#129=ADVANCED_FACE('',(#128),#110,.F.);
#130=CARTESIAN_POINT('',(40.,0.,40.));
#131=DIRECTION('',(-1.,0.,0.));
#132=DIRECTION('',(0.,0.,1.));
#133=AXIS2_PLACEMENT_3D('',#130,#131,#132);
#134=PLANE('',#133);
#135=CARTESIAN_POINT('',(40.,40.,0.));
#136=VERTEX_POINT('',#135);
#137=CARTESIAN_POINT('',(40.,0.,0.));
#138=DIRECTION('',(-0.,1.,0.));
#139=VECTOR('',#138,40.);
#140=LINE('',#137,#139);
#141=EDGE_CURVE('',#75,#136,#140,.T.);
#142=ORIENTED_EDGE('',*,*,#141,.T.);
#143=CARTESIAN_POINT('',(40.,40.,40.));
#144=VERTEX_POINT('',#143);
#145=CARTESIAN_POINT('',(40.,40.,40.));
#146=DIRECTION('',(0.,0.,-1.));
#147=VECTOR('',#146,40.);
#148=LINE('',#145,#147);
#149=EDGE_CURVE('',#144,#136,#148,.T.);
#150=ORIENTED_EDGE('',*,*,#149,.F.);
#151=CARTESIAN_POINT('',(40.,0.,40.));
#152=DIRECTION('',(-0.,1.,0.));
#153=VECTOR('',#152,40.);
#154=LINE('',#151,#153);
#155=EDGE_CURVE('',#83,#144,#154,.T.);
#156=ORIENTED_EDGE('',*,*,#155,.F.);
#157=ORIENTED_EDGE('',*,*,#88,.T.);
#158=EDGE_LOOP('',(#142,#150,#156,#157));
#159=FACE_BOUND('',#158,.T.);
#160=ADVANCED_FACE('',(#159),#134,.F.);
#161=CARTESIAN_POINT('',(0.,40.,40.));
#162=DIRECTION('',(0.,-1.,0.));
#163=DIRECTION('',(0.,0.,-1.));
#164=AXIS2_PLACEMENT_3D('',#161,#162,#163);
#165=PLANE('',#164);
#166=CARTESIAN_POINT('',(40.,40.,0.));
#167=DIRECTION('',(-1.,0.,0.));
#168=VECTOR('',#167,40.);
#169=LINE('',#166,#168);
#170=EDGE_CURVE('',#136,#112,#169,.T.);
#171=ORIENTED_EDGE('',*,*,#170,.T.);
#172=ORIENTED_EDGE('',*,*,#125,.F.);
#173=ORIENTED_EDGE('',*,*,#48,.F.);
#174=CARTESIAN_POINT('',(40.,40.,40.));
#175=DIRECTION('',(-1.,0.,0.));
#176=VECTOR('',#175,20.);
#177=LINE('',#174,#176);
#178=EDGE_CURVE('',#144,#33,#177,.T.);
#179=ORIENTED_EDGE('',*,*,#178,.F.);
#180=ORIENTED_EDGE('',*,*,#149,.T.);
#181=EDGE_LOOP('',(#171,#172,#173,#179,#180));
#182=FACE_BOUND('',#181,.T.);
#183=ADVANCED_FACE('',(#182),#165,.F.);
#184=CARTESIAN_POINT('',(0.,0.,40.));
#185=DIRECTION('',(0.,0.,-1.));
#186=DIRECTION('',(-1.,0.,0.));
#187=AXIS2_PLACEMENT_3D('',#184,#185,#186);
#188=PLANE('',#187);
#189=ORIENTED_EDGE('',*,*,#178,.T.);
#190=ORIENTED_EDGE('',*,*,#40,.T.);
#191=ORIENTED_EDGE('',*,*,#94,.T.);
#192=ORIENTED_EDGE('',*,*,#155,.T.);
#193=EDGE_LOOP('',(#189,#190,#191,#192));
#194=FACE_BOUND('',#193,.T.);
#195=ADVANCED_FACE('',(#194),#188,.F.);
#196=CARTESIAN_POINT('',(0.,0.,0.));
#197=DIRECTION('',(0.,0.,-1.));
#198=DIRECTION('',(-1.,0.,0.));
#199=AXIS2_PLACEMENT_3D('',#196,#197,#198);
#200=PLANE('',#199);
#201=ORIENTED_EDGE('',*,*,#117,.F.);
#202=ORIENTED_EDGE('',*,*,#170,.F.);
#203=ORIENTED_EDGE('',*,*,#141,.F.);
#204=ORIENTED_EDGE('',*,*,#80,.F.);
#205=EDGE_LOOP('',(#201,#202,#203,#204));
#206=FACE_BOUND('',#205,.T.);
#207=ADVANCED_FACE('',(#206),#200,.T.);
#208=CLOSED_SHELL('',(#66,#105,#129,#160,#183,#195,#207));
#209=MANIFOLD_SOLID_BREP('Split Line1',#208);
#210=PRESENTATION_STYLE_ASSIGNMENT((NULL_STYLE(.NULL.)));
#26=STYLED_ITEM('',(#210),#209);
#211=STYLED_ITEM('',(#210),#183);
#212=DRAUGHTING_PRE_DEFINED_COLOUR('yellow');
#213=FILL_AREA_STYLE_COLOUR('',#212);
#214=FILL_AREA_STYLE('',(#213));
#215=SURFACE_STYLE_FILL_AREA(#214);
#216=SURFACE_SIDE_STYLE('',(#215));
#217=SURFACE_STYLE_USAGE(.BOTH.,#216);
#218=PRESENTATION_STYLE_ASSIGNMENT((#217));
#219=OVER_RIDING_STYLED_ITEM('',(#218),#183,#211);
#220=STYLED_ITEM('',(#210),#105);
#221=COLOUR_RGB('',1.,0.,0.501960814);
#222=FILL_AREA_STYLE_COLOUR('',#221);
#223=FILL_AREA_STYLE('',(#222));
#224=SURFACE_STYLE_FILL_AREA(#223);
#225=SURFACE_SIDE_STYLE('',(#224));
#226=SURFACE_STYLE_USAGE(.BOTH.,#225);
#227=PRESENTATION_STYLE_ASSIGNMENT((#226));
#228=OVER_RIDING_STYLED_ITEM('',(#227),#105,#220);
#229=STYLED_ITEM('',(#210),#66);
#230=COLOUR_RGB('',1.,0.168627456,0.168627456);
#231=FILL_AREA_STYLE_COLOUR('',#230);
#232=FILL_AREA_STYLE('',(#231));
#233=SURFACE_STYLE_FILL_AREA(#232);
#234=SURFACE_SIDE_STYLE('',(#233));
#235=SURFACE_STYLE_USAGE(.BOTH.,#234);
#236=PRESENTATION_STYLE_ASSIGNMENT((#235));
#237=OVER_RIDING_STYLED_ITEM('',(#236),#66,#229);
#238=STYLED_ITEM('',(#210),#195);
#239=COLOUR_RGB('',0.071372546,0.071372546,0.071372546);
#240=FILL_AREA_STYLE_COLOUR('',#239);
#241=FILL_AREA_STYLE('',(#240));
#242=SURFACE_STYLE_FILL_AREA(#241);
#243=SURFACE_SIDE_STYLE('',(#242));
#244=SURFACE_STYLE_USAGE(.BOTH.,#243);
#245=PRESENTATION_STYLE_ASSIGNMENT((#244));
#246=OVER_RIDING_STYLED_ITEM('',(#245),#195,#238);
#247=STYLED_ITEM('',(#210),#160);
#248=COLOUR_RGB('',1.,0.549019635,0.);
#249=FILL_AREA_STYLE_COLOUR('',#248);
#250=FILL_AREA_STYLE('',(#249));
#251=SURFACE_STYLE_FILL_AREA(#250);
#252=SURFACE_SIDE_STYLE('',(#251));
#253=SURFACE_STYLE_USAGE(.BOTH.,#252);
#254=PRESENTATION_STYLE_ASSIGNMENT((#253));
#255=OVER_RIDING_STYLED_ITEM('',(#254),#160,#247);
#256=STYLED_ITEM('',(#210),#207);
#257=COLOUR_RGB('',0.34117648,0.839215696,0.411764711);
#258=FILL_AREA_STYLE_COLOUR('',#257);
#259=FILL_AREA_STYLE('',(#258));
#260=SURFACE_STYLE_FILL_AREA(#259);
#261=SURFACE_SIDE_STYLE('',(#260));
#262=SURFACE_STYLE_USAGE(.BOTH.,#261);
#263=PRESENTATION_STYLE_ASSIGNMENT((#262));
#264=OVER_RIDING_STYLED_ITEM('',(#263),#207,#256);
#265=STYLED_ITEM('',(#210),#129);
#266=COLOUR_RGB('',0.039215688,0.490196079,0.709803939);
#267=FILL_AREA_STYLE_COLOUR('',#266);
#268=FILL_AREA_STYLE('',(#267));
#269=SURFACE_STYLE_FILL_AREA(#268);
#270=SURFACE_SIDE_STYLE('',(#269));
#271=SURFACE_STYLE_USAGE(.BOTH.,#270);
#272=PRESENTATION_STYLE_ASSIGNMENT((#271));
#273=OVER_RIDING_STYLED_ITEM('',(#272),#129,#265);
#16=SHAPE_REPRESENTATION('Default',(#15),#10);
#17=ADVANCED_BREP_SHAPE_REPRESENTATION('Default',(#209),#10);
#281=SHAPE_REPRESENTATION_RELATIONSHIP('','',#16,#17);
#282=CARTESIAN_POINT('',(0.,0.,0.));
#283=DIRECTION('',(0.,0.,1.));
#284=DIRECTION('',(1.,0.,0.));
#285=AXIS2_PLACEMENT_3D('',#282,#283,#284);
#287=MAPPED_ITEM('',#286,#285);
#286=REPRESENTATION_MAP(#285,#16);
#288=APPLICATION_CONTEXT('Managed model based 3d engineering');
#289=APPLICATION_PROTOCOL_DEFINITION('international standard','ap242_managed_model_based_3d_engineering',2022,#288);
#290=PRODUCT_CONTEXT('',#288,'mechanical');
#291=PRODUCT_DEFINITION_CONTEXT('part definition',#288,'design');
#24=PRODUCT('Default','Default','',(#290));
#292=PRODUCT_RELATED_PRODUCT_CATEGORY('part','',(#24));
#293=PRODUCT_DEFINITION_FORMATION_WITH_SPECIFIED_SOURCE('','',#24,.NOT_KNOWN.);
#25=PRODUCT_DEFINITION('design','',#293,#291);
#23=PRODUCT_DEFINITION_SHAPE('','',#25);
#294=SHAPE_DEFINITION_REPRESENTATION(#23,#16);
#11=DRAUGHTING_MODEL('',(#287),#10);
#296=CARTESIAN_POINT('',(20.,20.,20.));
#297=DIRECTION('',(-0.46110103,-0.51880432,0.719880489));
#298=DIRECTION('',(-0.816840292,-0.068749374,-0.572752531));
#299=AXIS2_PLACEMENT_3D('Current Model View',#296,#297,#298);
#300=CARTESIAN_POINT('',(-121.715166885,-97.953936685,245.667391179));
#301=DIRECTION('',(-0.46110103,-0.51880432,0.719880489));
#302=DIRECTION('',(-0.816840292,-0.068749374,-0.572752531));
#303=AXIS2_PLACEMENT_3D('Current Model View',#300,#301,#302);
#305=CARTESIAN_POINT('Current Model View',(-85.427597436,-109.288834057,207.78048767));
#306=PLANAR_BOX('',160.005218506,160.005218506,#303);
#304=VIEW_VOLUME(.PARALLEL.,#305,250.867889404,0.,.F.,0.,.F.,.F.,#306);
#295=CAMERA_MODEL_D3('Current Model View',#299,#304);
#307=DRAUGHTING_MODEL('Current Model View',(#295),#10);
#308=MECHANICAL_DESIGN_AND_DRAUGHTING_RELATIONSHIP('Current Model View','',#307,#11);
#1=MECHANICAL_DESIGN_GEOMETRIC_PRESENTATION_REPRESENTATION('',(#26,#211,#219,#220,#228,#229,#237,#238,#246,#247,#255,#256,#264,#265,#273),#10);
ENDSEC;
END-ISO-10303-21;
