ISO-10303-21;
HEADER;

/* File generated by SOLIDWORKS MBD Version 2025 */

FILE_DESCRIPTION(('HOOPS Exchange Step'),'2;1');

FILE_NAME('C:\\Users\\joehr\\Documents\\actual fucking documents\\MATLAB\\ADBSat\\ADBSat-Master\\inou\\input_files\\ARMATURETEST.STP',
'2026-07-22T11:17:23+01:00',
('joehr'),
('None'),
'HOOPS Exchange 2024.8',
'SOLIDWORKS MBD',
'None');

FILE_SCHEMA( ('AP242_MANAGED_MODEL_BASED_3D_ENGINEERING_MIM_LF {1 0 10303 442 4 1 4}') );

ENDSEC;

DATA;
#3=(NAMED_UNIT(*)PLANE_ANGLE_UNIT()SI_UNIT($,.RADIAN.));
#4=PLANE_ANGLE_MEASURE_WITH_UNIT(PLANE_ANGLE_MEASURE(0.0174532925),#3);
#5=(CONVERSION_BASED_UNIT('DEGREE',#4)NAMED_UNIT(#6)PLANE_ANGLE_UNIT());
#6=DIMENSIONAL_EXPONENTS(0.,0.,0.,0.,0.,0.,0.);
#7=(NAMED_UNIT(*)SI_UNIT($,.STERADIAN.)SOLID_ANGLE_UNIT());
#8=(LENGTH_UNIT()NAMED_UNIT(*)SI_UNIT(.MILLI.,.METRE.));
#9=UNCERTAINTY_MEASURE_WITH_UNIT(LENGTH_MEASURE(1.000000E-03),#8,'DISTANCE_ACCURACY_VALUE','Maximum Tolerance applied to model');
#10=(GEOMETRIC_REPRESENTATION_CONTEXT(3)GLOBAL_UNCERTAINTY_ASSIGNED_CONTEXT((#9))GLOBAL_UNIT_ASSIGNED_CONTEXT((#8,#5,#7))REPRESENTATION_CONTEXT('','Default'));
#12=CARTESIAN_POINT('',(0.,0.,0.));
#13=DIRECTION('',(0.,0.,1.));
#14=DIRECTION('',(1.,0.,0.));
#15=AXIS2_PLACEMENT_3D('',#12,#13,#14);
#27=CARTESIAN_POINT('',(0.,50.,50.));
#28=DIRECTION('',(0.,-1.,0.));
#29=DIRECTION('',(0.,0.,-1.));
#30=AXIS2_PLACEMENT_3D('',#27,#28,#29);
#31=PLANE('',#30);
#32=CARTESIAN_POINT('',(50.,50.,0.));
#33=VERTEX_POINT('',#32);
#34=CARTESIAN_POINT('',(0.,50.,0.));
#35=VERTEX_POINT('',#34);
#36=CARTESIAN_POINT('',(50.,50.,0.));
#37=DIRECTION('',(-1.,0.,0.));
#38=VECTOR('',#37,50.);
#39=LINE('',#36,#38);
#40=EDGE_CURVE('',#33,#35,#39,.T.);
#41=ORIENTED_EDGE('',*,*,#40,.T.);
#42=CARTESIAN_POINT('',(0.,50.,50.));
#43=VERTEX_POINT('',#42);
#44=CARTESIAN_POINT('',(0.,50.,50.));
#45=DIRECTION('',(0.,0.,-1.));
#46=VECTOR('',#45,50.);
#47=LINE('',#44,#46);
#48=EDGE_CURVE('',#43,#35,#47,.T.);
#49=ORIENTED_EDGE('',*,*,#48,.F.);
#50=CARTESIAN_POINT('',(50.,50.,50.));
#51=VERTEX_POINT('',#50);
#52=CARTESIAN_POINT('',(50.,50.,50.));
#53=DIRECTION('',(-1.,0.,0.));
#54=VECTOR('',#53,50.);
#55=LINE('',#52,#54);
#56=EDGE_CURVE('',#51,#43,#55,.T.);
#57=ORIENTED_EDGE('',*,*,#56,.F.);
#58=CARTESIAN_POINT('',(50.,50.,50.));
#59=DIRECTION('',(0.,0.,-1.));
#60=VECTOR('',#59,50.);
#61=LINE('',#58,#60);
#62=EDGE_CURVE('',#51,#33,#61,.T.);
#63=ORIENTED_EDGE('',*,*,#62,.T.);
#64=EDGE_LOOP('',(#41,#49,#57,#63));
#65=FACE_BOUND('',#64,.T.);
#66=ADVANCED_FACE('',(#65),#31,.F.);
#67=CARTESIAN_POINT('',(0.,0.,50.));
#68=DIRECTION('',(0.,1.,0.));
#69=DIRECTION('',(0.,0.,1.));
#70=AXIS2_PLACEMENT_3D('',#67,#68,#69);
#71=PLANE('',#70);
#72=CARTESIAN_POINT('',(0.,0.,0.));
#73=VERTEX_POINT('',#72);
#74=CARTESIAN_POINT('',(50.,0.,0.));
#75=VERTEX_POINT('',#74);
#76=CARTESIAN_POINT('',(0.,0.,0.));
#77=DIRECTION('',(1.,0.,0.));
#78=VECTOR('',#77,50.);
#79=LINE('',#76,#78);
#80=EDGE_CURVE('',#73,#75,#79,.T.);
#81=ORIENTED_EDGE('',*,*,#80,.T.);
#82=CARTESIAN_POINT('',(50.,0.,50.));
#83=VERTEX_POINT('',#82);
#84=CARTESIAN_POINT('',(50.,0.,50.));
#85=DIRECTION('',(0.,0.,-1.));
#86=VECTOR('',#85,50.);
#87=LINE('',#84,#86);
#88=EDGE_CURVE('',#83,#75,#87,.T.);
#89=ORIENTED_EDGE('',*,*,#88,.F.);
#90=CARTESIAN_POINT('',(0.,0.,50.));
#91=VERTEX_POINT('',#90);
#92=CARTESIAN_POINT('',(0.,0.,50.));
#93=DIRECTION('',(1.,0.,0.));
#94=VECTOR('',#93,50.);
#95=LINE('',#92,#94);
#96=EDGE_CURVE('',#91,#83,#95,.T.);
#97=ORIENTED_EDGE('',*,*,#96,.F.);
#98=CARTESIAN_POINT('',(0.,0.,50.));
#99=DIRECTION('',(0.,0.,-1.));
#100=VECTOR('',#99,50.);
#101=LINE('',#98,#100);
#102=EDGE_CURVE('',#91,#73,#101,.T.);
#103=ORIENTED_EDGE('',*,*,#102,.T.);
#104=EDGE_LOOP('',(#81,#89,#97,#103));
#105=FACE_BOUND('',#104,.T.);
#106=ADVANCED_FACE('',(#105),#71,.F.);
#107=CARTESIAN_POINT('',(0.,0.,50.));
#108=DIRECTION('',(0.,0.,-1.));
#109=DIRECTION('',(-1.,0.,0.));
#110=AXIS2_PLACEMENT_3D('',#107,#108,#109);
#111=PLANE('',#110);
#112=CARTESIAN_POINT('',(20.,25.,50.));
#113=VERTEX_POINT('',#112);
#114=CARTESIAN_POINT('',(25.,25.,50.));
#115=DIRECTION('',(0.,0.,1.));
#116=DIRECTION('',(-1.,0.,0.));
#117=AXIS2_PLACEMENT_3D('',#114,#115,#116);
#118=CIRCLE('',#117,5.);
#119=EDGE_CURVE('',#113,#113,#118,.T.);
#120=ORIENTED_EDGE('',*,*,#119,.F.);
#121=EDGE_LOOP('',(#120));
#122=FACE_BOUND('',#121,.T.);
#123=CARTESIAN_POINT('',(0.,50.,50.));
#124=DIRECTION('',(0.,-1.,0.));
#125=VECTOR('',#124,50.);
#126=LINE('',#123,#125);
#127=EDGE_CURVE('',#43,#91,#126,.T.);
#128=ORIENTED_EDGE('',*,*,#127,.T.);
#129=ORIENTED_EDGE('',*,*,#96,.T.);
#130=CARTESIAN_POINT('',(50.,0.,50.));
#131=DIRECTION('',(-0.,1.,0.));
#132=VECTOR('',#131,50.);
#133=LINE('',#130,#132);
#134=EDGE_CURVE('',#83,#51,#133,.T.);
#135=ORIENTED_EDGE('',*,*,#134,.T.);
#136=ORIENTED_EDGE('',*,*,#56,.T.);
#137=EDGE_LOOP('',(#128,#129,#135,#136));
#138=FACE_BOUND('',#137,.T.);
#139=ADVANCED_FACE('',(#122,#138),#111,.F.);
#140=CARTESIAN_POINT('',(0.,0.,50.));
#141=DIRECTION('',(1.,0.,0.));
#142=DIRECTION('',(0.,0.,-1.));
#143=AXIS2_PLACEMENT_3D('',#140,#141,#142);
#144=PLANE('',#143);
#145=CARTESIAN_POINT('',(0.,50.,0.));
#146=DIRECTION('',(0.,-1.,0.));
#147=VECTOR('',#146,50.);
#148=LINE('',#145,#147);
#149=EDGE_CURVE('',#35,#73,#148,.T.);
#150=ORIENTED_EDGE('',*,*,#149,.T.);
#151=ORIENTED_EDGE('',*,*,#102,.F.);
#152=ORIENTED_EDGE('',*,*,#127,.F.);
#153=ORIENTED_EDGE('',*,*,#48,.T.);
#154=EDGE_LOOP('',(#150,#151,#152,#153));
#155=FACE_BOUND('',#154,.T.);
#156=ADVANCED_FACE('',(#155),#144,.F.);
#157=CARTESIAN_POINT('',(25.,25.,1050.));
#158=DIRECTION('',(0.,0.,-1.));
#159=DIRECTION('',(-1.,0.,0.));
#160=AXIS2_PLACEMENT_3D('',#157,#158,#159);
#161=CYLINDRICAL_SURFACE('',#160,5.);
#162=CARTESIAN_POINT('',(20.,25.,1050.));
#163=VERTEX_POINT('',#162);
#164=CARTESIAN_POINT('',(20.,25.,50.));
#165=DIRECTION('',(-0.,-0.,1.));
#166=VECTOR('',#165,1000.);
#167=LINE('',#164,#166);
#168=EDGE_CURVE('',#113,#163,#167,.T.);
#169=ORIENTED_EDGE('',*,*,#168,.T.);
#170=CARTESIAN_POINT('',(30.,25.,1050.));
#171=VERTEX_POINT('',#170);
#172=CARTESIAN_POINT('',(25.,25.,1050.));
#173=DIRECTION('',(0.,0.,1.));
#174=DIRECTION('',(1.,0.,-0.));
#175=AXIS2_PLACEMENT_3D('',#172,#173,#174);
#176=CIRCLE('',#175,5.);
#177=EDGE_CURVE('',#171,#163,#176,.T.);
#178=ORIENTED_EDGE('',*,*,#177,.F.);
#179=CARTESIAN_POINT('',(25.,25.,1050.));
#180=DIRECTION('',(0.,0.,1.));
#181=DIRECTION('',(1.,0.,-0.));
#182=AXIS2_PLACEMENT_3D('',#179,#180,#181);
#183=CIRCLE('',#182,5.);
#184=EDGE_CURVE('',#163,#171,#183,.T.);
#185=ORIENTED_EDGE('',*,*,#184,.F.);
#186=ORIENTED_EDGE('',*,*,#168,.F.);
#187=ORIENTED_EDGE('',*,*,#119,.T.);
#188=EDGE_LOOP('',(#169,#178,#185,#186,#187));
#189=FACE_BOUND('',#188,.T.);
#190=ADVANCED_FACE('',(#189),#161,.T.);
#191=CARTESIAN_POINT('',(25.,25.,1050.));
#192=DIRECTION('',(0.,0.,1.));
#193=DIRECTION('',(1.,0.,0.));
#194=AXIS2_PLACEMENT_3D('',#191,#192,#193);
#195=PLANE('',#194);
#196=ORIENTED_EDGE('',*,*,#177,.T.);
#197=ORIENTED_EDGE('',*,*,#184,.T.);
#198=EDGE_LOOP('',(#196,#197));
#199=FACE_BOUND('',#198,.T.);
#200=ADVANCED_FACE('',(#199),#195,.T.);
#201=CARTESIAN_POINT('',(0.,0.,0.));
#202=DIRECTION('',(0.,0.,-1.));
#203=DIRECTION('',(-1.,0.,0.));
#204=AXIS2_PLACEMENT_3D('',#201,#202,#203);
#205=PLANE('',#204);
#206=ORIENTED_EDGE('',*,*,#149,.F.);
#207=ORIENTED_EDGE('',*,*,#40,.F.);
#208=CARTESIAN_POINT('',(50.,0.,0.));
#209=DIRECTION('',(-0.,1.,0.));
#210=VECTOR('',#209,50.);
#211=LINE('',#208,#210);
#212=EDGE_CURVE('',#75,#33,#211,.T.);
#213=ORIENTED_EDGE('',*,*,#212,.F.);
#214=ORIENTED_EDGE('',*,*,#80,.F.);
#215=EDGE_LOOP('',(#206,#207,#213,#214));
#216=FACE_BOUND('',#215,.T.);
#217=ADVANCED_FACE('',(#216),#205,.T.);
#218=CARTESIAN_POINT('',(50.,0.,50.));
#219=DIRECTION('',(-1.,0.,0.));
#220=DIRECTION('',(0.,0.,1.));
#221=AXIS2_PLACEMENT_3D('',#218,#219,#220);
#222=PLANE('',#221);
#223=ORIENTED_EDGE('',*,*,#212,.T.);
#224=ORIENTED_EDGE('',*,*,#62,.F.);
#225=ORIENTED_EDGE('',*,*,#134,.F.);
#226=ORIENTED_EDGE('',*,*,#88,.T.);
#227=EDGE_LOOP('',(#223,#224,#225,#226));
#228=FACE_BOUND('',#227,.T.);
#229=ADVANCED_FACE('',(#228),#222,.F.);
#230=CLOSED_SHELL('',(#66,#106,#139,#156,#190,#200,#217,#229));
#231=MANIFOLD_SOLID_BREP('Boss-Extrude2',#230);
#232=PRESENTATION_STYLE_ASSIGNMENT((NULL_STYLE(.NULL.)));
#26=STYLED_ITEM('',(#232),#231);
#233=STYLED_ITEM('',(#232),#200);
#234=COLOUR_RGB('',0.007843138,0.239215687,0.823529422);
#235=FILL_AREA_STYLE_COLOUR('',#234);
#236=FILL_AREA_STYLE('',(#235));
#237=SURFACE_STYLE_FILL_AREA(#236);
#238=SURFACE_SIDE_STYLE('',(#237));
#239=SURFACE_STYLE_USAGE(.BOTH.,#238);
#240=PRESENTATION_STYLE_ASSIGNMENT((#239));
#241=OVER_RIDING_STYLED_ITEM('',(#240),#200,#233);
#242=STYLED_ITEM('',(#232),#190);
#243=OVER_RIDING_STYLED_ITEM('',(#240),#190,#242);
#244=STYLED_ITEM('',(#232),#217);
#245=COLOUR_RGB('',0.937254906,0.937254906,0.937254906);
#246=FILL_AREA_STYLE_COLOUR('',#245);
#247=SURFACE_STYLE_TRANSPARENT(0.6);
#248=SURFACE_STYLE_RENDERING_WITH_PROPERTIES(.CONSTANT_SHADING.,#245,(#247));
#249=FILL_AREA_STYLE('',(#246));
#250=SURFACE_STYLE_FILL_AREA(#249);
#251=SURFACE_SIDE_STYLE('',(#250,#248));
#252=SURFACE_STYLE_USAGE(.BOTH.,#251);
#253=PRESENTATION_STYLE_ASSIGNMENT((#252));
#254=OVER_RIDING_STYLED_ITEM('',(#253),#217,#244);
#255=STYLED_ITEM('',(#232),#139);
#256=OVER_RIDING_STYLED_ITEM('',(#253),#139,#255);
#257=STYLED_ITEM('',(#232),#66);
#258=OVER_RIDING_STYLED_ITEM('',(#253),#66,#257);
#259=STYLED_ITEM('',(#232),#229);
#260=OVER_RIDING_STYLED_ITEM('',(#253),#229,#259);
#261=STYLED_ITEM('',(#232),#106);
#262=OVER_RIDING_STYLED_ITEM('',(#253),#106,#261);
#263=STYLED_ITEM('',(#232),#156);
#264=OVER_RIDING_STYLED_ITEM('',(#253),#156,#263);
#16=SHAPE_REPRESENTATION('Default',(#15),#10);
#17=ADVANCED_BREP_SHAPE_REPRESENTATION('Default',(#231),#10);
#272=SHAPE_REPRESENTATION_RELATIONSHIP('','',#16,#17);
#273=CARTESIAN_POINT('',(0.,0.,0.));
#274=DIRECTION('',(0.,0.,1.));
#275=DIRECTION('',(1.,0.,0.));
#276=AXIS2_PLACEMENT_3D('',#273,#274,#275);
#278=MAPPED_ITEM('',#277,#276);
#277=REPRESENTATION_MAP(#276,#16);
#279=APPLICATION_CONTEXT('Managed model based 3d engineering');
#280=APPLICATION_PROTOCOL_DEFINITION('international standard','ap242_managed_model_based_3d_engineering',2022,#279);
#281=PRODUCT_CONTEXT('',#279,'mechanical');
#282=PRODUCT_DEFINITION_CONTEXT('part definition',#279,'design');
#24=PRODUCT('Default','Default','',(#281));
#283=PRODUCT_RELATED_PRODUCT_CATEGORY('part','',(#24));
#284=PRODUCT_DEFINITION_FORMATION_WITH_SPECIFIED_SOURCE('','',#24,.NOT_KNOWN.);
#25=PRODUCT_DEFINITION('design','',#284,#282);
#23=PRODUCT_DEFINITION_SHAPE('','',#25);
#285=SHAPE_DEFINITION_REPRESENTATION(#23,#16);
#11=DRAUGHTING_MODEL('',(#278),#10);
#287=CARTESIAN_POINT('',(25.,25.,525.));
#288=DIRECTION('',(0.407036939,0.472571257,-0.781663187));
#289=DIRECTION('',(-0.683467428,-0.410145081,-0.603865289));
#290=AXIS2_PLACEMENT_3D('Current Model View',#287,#288,#289);
#291=CARTESIAN_POINT('',(-1978.086638079,-775.624848953,3700.994735092));
#292=DIRECTION('',(0.407036939,0.472571257,-0.781663187));
#293=DIRECTION('',(-0.683467428,-0.410145081,-0.603865289));
#294=AXIS2_PLACEMENT_3D('Current Model View',#291,#292,#293);
#296=CARTESIAN_POINT('Current Model View',(2146.228580414,2294.392897486,-2230.035036529));
#297=PLANAR_BOX('',1833.632202148,1833.632202148,#294);
#295=VIEW_VOLUME(.PARALLEL.,#296,4089.377685547,0.,.F.,0.,.F.,.F.,#297);
#286=CAMERA_MODEL_D3('Current Model View',#290,#295);
#298=DRAUGHTING_MODEL('Current Model View',(#286),#10);
#299=MECHANICAL_DESIGN_AND_DRAUGHTING_RELATIONSHIP('Current Model View','',#298,#11);
#1=MECHANICAL_DESIGN_GEOMETRIC_PRESENTATION_REPRESENTATION('',(#26,#233,#241,#242,#243,#244,#254,#255,#256,#257,#258,#259,#260,#261,#262,#263,#264),#10);
ENDSEC;
END-ISO-10303-21;
