ISO-10303-21;
HEADER;

/* File generated by SOLIDWORKS MBD Version 2025 */

FILE_DESCRIPTION(('HOOPS Exchange Step'),'2;1');

FILE_NAME('C:\\Users\\joehr\\Documents\\actual fucking documents\\MATLAB\\ADBSat\\ADBSat-master\\inou\\stp_files\\SHADOWTEST.STP',
'2026-07-02T22:43:26+01:00',
('joehr'),
('None'),
'HOOPS Exchange 2024.8',
'SOLIDWORKS MBD',
'None');

FILE_SCHEMA( ('AP242_MANAGED_MODEL_BASED_3D_ENGINEERING_MIM_LF {1 0 10303 442 4 1 4}') );

ENDSEC;

DATA;
#3=(NAMED_UNIT(*)PLANE_ANGLE_UNIT()SI_UNIT($,.RADIAN.));
#4=PLANE_ANGLE_MEASURE_WITH_UNIT(PLANE_ANGLE_MEASURE(0.0174532925),#3);
#5=(CONVERSION_BASED_UNIT('DEGREE',#4)NAMED_UNIT(#6)PLANE_ANGLE_UNIT());
#6=DIMENSIONAL_EXPONENTS(0.,0.,0.,0.,0.,0.,0.);
#7=(NAMED_UNIT(*)SI_UNIT($,.STERADIAN.)SOLID_ANGLE_UNIT());
#8=(LENGTH_UNIT()NAMED_UNIT(*)SI_UNIT(.MILLI.,.METRE.));
#9=UNCERTAINTY_MEASURE_WITH_UNIT(LENGTH_MEASURE(1.000000E-03),#8,'DISTANCE_ACCURACY_VALUE','Maximum Tolerance applied to model');
#10=(GEOMETRIC_REPRESENTATION_CONTEXT(3)GLOBAL_UNCERTAINTY_ASSIGNED_CONTEXT((#9))GLOBAL_UNIT_ASSIGNED_CONTEXT((#8,#5,#7))REPRESENTATION_CONTEXT('','Default'));
#12=CARTESIAN_POINT('',(0.,0.,0.));
#13=DIRECTION('',(0.,0.,1.));
#14=DIRECTION('',(1.,0.,0.));
#15=AXIS2_PLACEMENT_3D('',#12,#13,#14);
#27=CARTESIAN_POINT('',(0.,0.,50.));
#28=DIRECTION('',(1.,0.,0.));
#29=DIRECTION('',(0.,0.,-1.));
#30=AXIS2_PLACEMENT_3D('',#27,#28,#29);
#31=PLANE('',#30);
#32=CARTESIAN_POINT('',(0.,10.,0.));
#33=VERTEX_POINT('',#32);
#34=CARTESIAN_POINT('',(0.,0.,0.));
#35=VERTEX_POINT('',#34);
#36=CARTESIAN_POINT('',(0.,10.,0.));
#37=DIRECTION('',(0.,-1.,0.));
#38=VECTOR('',#37,10.);
#39=LINE('',#36,#38);
#40=EDGE_CURVE('',#33,#35,#39,.T.);
#41=ORIENTED_EDGE('',*,*,#40,.T.);
#42=CARTESIAN_POINT('',(0.,0.,50.));
#43=VERTEX_POINT('',#42);
#44=CARTESIAN_POINT('',(0.,0.,50.));
#45=DIRECTION('',(0.,0.,-1.));
#46=VECTOR('',#45,50.);
#47=LINE('',#44,#46);
#48=EDGE_CURVE('',#43,#35,#47,.T.);
#49=ORIENTED_EDGE('',*,*,#48,.F.);
#50=CARTESIAN_POINT('',(0.,10.,50.));
#51=VERTEX_POINT('',#50);
#52=CARTESIAN_POINT('',(0.,10.,50.));
#53=DIRECTION('',(0.,-1.,0.));
#54=VECTOR('',#53,10.);
#55=LINE('',#52,#54);
#56=EDGE_CURVE('',#51,#43,#55,.T.);
#57=ORIENTED_EDGE('',*,*,#56,.F.);
#58=CARTESIAN_POINT('',(0.,10.,50.));
#59=DIRECTION('',(0.,0.,-1.));
#60=VECTOR('',#59,50.);
#61=LINE('',#58,#60);
#62=EDGE_CURVE('',#51,#33,#61,.T.);
#63=ORIENTED_EDGE('',*,*,#62,.T.);
#64=EDGE_LOOP('',(#41,#49,#57,#63));
#65=FACE_BOUND('',#64,.T.);
#66=ADVANCED_FACE('',(#65),#31,.F.);
#67=CARTESIAN_POINT('',(0.,0.,50.));
#68=DIRECTION('',(0.,1.,0.));
#69=DIRECTION('',(0.,0.,1.));
#70=AXIS2_PLACEMENT_3D('',#67,#68,#69);
#71=PLANE('',#70);
#72=CARTESIAN_POINT('',(10.,0.,0.));
#73=VERTEX_POINT('',#72);
#74=CARTESIAN_POINT('',(0.,0.,0.));
#75=DIRECTION('',(1.,0.,0.));
#76=VECTOR('',#75,10.);
#77=LINE('',#74,#76);
#78=EDGE_CURVE('',#35,#73,#77,.T.);
#79=ORIENTED_EDGE('',*,*,#78,.T.);
#80=CARTESIAN_POINT('',(10.,0.,50.));
#81=VERTEX_POINT('',#80);
#82=CARTESIAN_POINT('',(10.,0.,50.));
#83=DIRECTION('',(0.,0.,-1.));
#84=VECTOR('',#83,50.);
#85=LINE('',#82,#84);
#86=EDGE_CURVE('',#81,#73,#85,.T.);
#87=ORIENTED_EDGE('',*,*,#86,.F.);
#88=CARTESIAN_POINT('',(0.,0.,50.));
#89=DIRECTION('',(1.,0.,0.));
#90=VECTOR('',#89,10.);
#91=LINE('',#88,#90);
#92=EDGE_CURVE('',#43,#81,#91,.T.);
#93=ORIENTED_EDGE('',*,*,#92,.F.);
#94=ORIENTED_EDGE('',*,*,#48,.T.);
#95=EDGE_LOOP('',(#79,#87,#93,#94));
#96=FACE_BOUND('',#95,.T.);
#97=ADVANCED_FACE('',(#96),#71,.F.);
#98=CARTESIAN_POINT('',(0.,0.,60.));
#99=DIRECTION('',(0.,0.,-1.));
#100=DIRECTION('',(-1.,0.,0.));
#101=AXIS2_PLACEMENT_3D('',#98,#99,#100);
#102=PLANE('',#101);
#103=CARTESIAN_POINT('',(-15.,25.,60.));
#104=VERTEX_POINT('',#103);
#105=CARTESIAN_POINT('',(-15.,-15.,60.));
#106=VERTEX_POINT('',#105);
#107=CARTESIAN_POINT('',(-15.,25.,60.));
#108=DIRECTION('',(0.,-1.,0.));
#109=VECTOR('',#108,40.);
#110=LINE('',#107,#109);
#111=EDGE_CURVE('',#104,#106,#110,.T.);
#112=ORIENTED_EDGE('',*,*,#111,.T.);
#113=CARTESIAN_POINT('',(25.,-15.,60.));
#114=VERTEX_POINT('',#113);
#115=CARTESIAN_POINT('',(-15.,-15.,60.));
#116=DIRECTION('',(1.,0.,0.));
#117=VECTOR('',#116,40.);
#118=LINE('',#115,#117);
#119=EDGE_CURVE('',#106,#114,#118,.T.);
#120=ORIENTED_EDGE('',*,*,#119,.T.);
#121=CARTESIAN_POINT('',(25.,25.,60.));
#122=VERTEX_POINT('',#121);
#123=CARTESIAN_POINT('',(25.,-15.,60.));
#124=DIRECTION('',(-0.,1.,0.));
#125=VECTOR('',#124,40.);
#126=LINE('',#123,#125);
#127=EDGE_CURVE('',#114,#122,#126,.T.);
#128=ORIENTED_EDGE('',*,*,#127,.T.);
#129=CARTESIAN_POINT('',(25.,25.,60.));
#130=DIRECTION('',(-1.,0.,0.));
#131=VECTOR('',#130,40.);
#132=LINE('',#129,#131);
#133=EDGE_CURVE('',#122,#104,#132,.T.);
#134=ORIENTED_EDGE('',*,*,#133,.T.);
#135=EDGE_LOOP('',(#112,#120,#128,#134));
#136=FACE_BOUND('',#135,.T.);
#137=ADVANCED_FACE('',(#136),#102,.F.);
#138=CARTESIAN_POINT('',(0.,0.,50.));
#139=DIRECTION('',(0.,0.,-1.));
#140=DIRECTION('',(-1.,0.,0.));
#141=AXIS2_PLACEMENT_3D('',#138,#139,#140);
#142=PLANE('',#141);
#143=CARTESIAN_POINT('',(10.,10.,50.));
#144=VERTEX_POINT('',#143);
#145=CARTESIAN_POINT('',(10.,10.,50.));
#146=DIRECTION('',(-1.,0.,0.));
#147=VECTOR('',#146,10.);
#148=LINE('',#145,#147);
#149=EDGE_CURVE('',#144,#51,#148,.T.);
#150=ORIENTED_EDGE('',*,*,#149,.T.);
#151=ORIENTED_EDGE('',*,*,#56,.T.);
#152=ORIENTED_EDGE('',*,*,#92,.T.);
#153=CARTESIAN_POINT('',(10.,0.,50.));
#154=DIRECTION('',(-0.,1.,0.));
#155=VECTOR('',#154,10.);
#156=LINE('',#153,#155);
#157=EDGE_CURVE('',#81,#144,#156,.T.);
#158=ORIENTED_EDGE('',*,*,#157,.T.);
#159=EDGE_LOOP('',(#150,#151,#152,#158));
#160=FACE_BOUND('',#159,.T.);
#161=CARTESIAN_POINT('',(-15.,25.,50.));
#162=VERTEX_POINT('',#161);
#163=CARTESIAN_POINT('',(-15.,-15.,50.));
#164=VERTEX_POINT('',#163);
#165=CARTESIAN_POINT('',(-15.,25.,50.));
#166=DIRECTION('',(0.,-1.,0.));
#167=VECTOR('',#166,40.);
#168=LINE('',#165,#167);
#169=EDGE_CURVE('',#162,#164,#168,.T.);
#170=ORIENTED_EDGE('',*,*,#169,.F.);
#171=CARTESIAN_POINT('',(25.,25.,50.));
#172=VERTEX_POINT('',#171);
#173=CARTESIAN_POINT('',(25.,25.,50.));
#174=DIRECTION('',(-1.,0.,0.));
#175=VECTOR('',#174,40.);
#176=LINE('',#173,#175);
#177=EDGE_CURVE('',#172,#162,#176,.T.);
#178=ORIENTED_EDGE('',*,*,#177,.F.);
#179=CARTESIAN_POINT('',(25.,-15.,50.));
#180=VERTEX_POINT('',#179);
#181=CARTESIAN_POINT('',(25.,-15.,50.));
#182=DIRECTION('',(-0.,1.,0.));
#183=VECTOR('',#182,40.);
#184=LINE('',#181,#183);
#185=EDGE_CURVE('',#180,#172,#184,.T.);
#186=ORIENTED_EDGE('',*,*,#185,.F.);
#187=CARTESIAN_POINT('',(-15.,-15.,50.));
#188=DIRECTION('',(1.,0.,0.));
#189=VECTOR('',#188,40.);
#190=LINE('',#187,#189);
#191=EDGE_CURVE('',#164,#180,#190,.T.);
#192=ORIENTED_EDGE('',*,*,#191,.F.);
#193=EDGE_LOOP('',(#170,#178,#186,#192));
#194=FACE_BOUND('',#193,.T.);
#195=ADVANCED_FACE('',(#160,#194),#142,.T.);
#196=CARTESIAN_POINT('',(-15.,25.,60.));
#197=DIRECTION('',(0.,-1.,0.));
#198=DIRECTION('',(0.,0.,-1.));
#199=AXIS2_PLACEMENT_3D('',#196,#197,#198);
#200=PLANE('',#199);
#201=ORIENTED_EDGE('',*,*,#177,.T.);
#202=CARTESIAN_POINT('',(-15.,25.,60.));
#203=DIRECTION('',(0.,0.,-1.));
#204=VECTOR('',#203,10.);
#205=LINE('',#202,#204);
#206=EDGE_CURVE('',#104,#162,#205,.T.);
#207=ORIENTED_EDGE('',*,*,#206,.F.);
#208=ORIENTED_EDGE('',*,*,#133,.F.);
#209=CARTESIAN_POINT('',(25.,25.,60.));
#210=DIRECTION('',(0.,0.,-1.));
#211=VECTOR('',#210,10.);
#212=LINE('',#209,#211);
#213=EDGE_CURVE('',#122,#172,#212,.T.);
#214=ORIENTED_EDGE('',*,*,#213,.T.);
#215=EDGE_LOOP('',(#201,#207,#208,#214));
#216=FACE_BOUND('',#215,.T.);
#217=ADVANCED_FACE('',(#216),#200,.F.);
#218=CARTESIAN_POINT('',(-15.,-15.,60.));
#219=DIRECTION('',(0.,1.,0.));
#220=DIRECTION('',(0.,0.,1.));
#221=AXIS2_PLACEMENT_3D('',#218,#219,#220);
#222=PLANE('',#221);
#223=ORIENTED_EDGE('',*,*,#191,.T.);
#224=CARTESIAN_POINT('',(25.,-15.,60.));
#225=DIRECTION('',(0.,0.,-1.));
#226=VECTOR('',#225,10.);
#227=LINE('',#224,#226);
#228=EDGE_CURVE('',#114,#180,#227,.T.);
#229=ORIENTED_EDGE('',*,*,#228,.F.);
#230=ORIENTED_EDGE('',*,*,#119,.F.);
#231=CARTESIAN_POINT('',(-15.,-15.,60.));
#232=DIRECTION('',(0.,0.,-1.));
#233=VECTOR('',#232,10.);
#234=LINE('',#231,#233);
#235=EDGE_CURVE('',#106,#164,#234,.T.);
#236=ORIENTED_EDGE('',*,*,#235,.T.);
#237=EDGE_LOOP('',(#223,#229,#230,#236));
#238=FACE_BOUND('',#237,.T.);
#239=ADVANCED_FACE('',(#238),#222,.F.);
#240=CARTESIAN_POINT('',(45.,-35.,-10.));
#241=DIRECTION('',(0.,1.,0.));
#242=DIRECTION('',(0.,0.,1.));
#243=AXIS2_PLACEMENT_3D('',#240,#241,#242);
#244=PLANE('',#243);
#245=CARTESIAN_POINT('',(45.,-35.,0.));
#246=VERTEX_POINT('',#245);
#247=CARTESIAN_POINT('',(-35.,-35.,0.));
#248=VERTEX_POINT('',#247);
#249=CARTESIAN_POINT('',(45.,-35.,0.));
#250=DIRECTION('',(-1.,0.,0.));
#251=VECTOR('',#250,80.);
#252=LINE('',#249,#251);
#253=EDGE_CURVE('',#246,#248,#252,.T.);
#254=ORIENTED_EDGE('',*,*,#253,.T.);
#255=CARTESIAN_POINT('',(-35.,-35.,-10.));
#256=VERTEX_POINT('',#255);
#257=CARTESIAN_POINT('',(-35.,-35.,-10.));
#258=DIRECTION('',(0.,-0.,1.));
#259=VECTOR('',#258,10.);
#260=LINE('',#257,#259);
#261=EDGE_CURVE('',#256,#248,#260,.T.);
#262=ORIENTED_EDGE('',*,*,#261,.F.);
#263=CARTESIAN_POINT('',(45.,-35.,-10.));
#264=VERTEX_POINT('',#263);
#265=CARTESIAN_POINT('',(45.,-35.,-10.));
#266=DIRECTION('',(-1.,0.,0.));
#267=VECTOR('',#266,80.);
#268=LINE('',#265,#267);
#269=EDGE_CURVE('',#264,#256,#268,.T.);
#270=ORIENTED_EDGE('',*,*,#269,.F.);
#271=CARTESIAN_POINT('',(45.,-35.,-10.));
#272=DIRECTION('',(0.,-0.,1.));
#273=VECTOR('',#272,10.);
#274=LINE('',#271,#273);
#275=EDGE_CURVE('',#264,#246,#274,.T.);
#276=ORIENTED_EDGE('',*,*,#275,.T.);
#277=EDGE_LOOP('',(#254,#262,#270,#276));
#278=FACE_BOUND('',#277,.T.);
#279=ADVANCED_FACE('',(#278),#244,.F.);
#280=CARTESIAN_POINT('',(0.,0.,-10.));
#281=DIRECTION('',(0.,0.,1.));
#282=DIRECTION('',(1.,0.,0.));
#283=AXIS2_PLACEMENT_3D('',#280,#281,#282);
#284=PLANE('',#283);
#285=CARTESIAN_POINT('',(45.,45.,-10.));
#286=VERTEX_POINT('',#285);
#287=CARTESIAN_POINT('',(45.,45.,-10.));
#288=DIRECTION('',(0.,-1.,0.));
#289=VECTOR('',#288,80.);
#290=LINE('',#287,#289);
#291=EDGE_CURVE('',#286,#264,#290,.T.);
#292=ORIENTED_EDGE('',*,*,#291,.T.);
#293=ORIENTED_EDGE('',*,*,#269,.T.);
#294=CARTESIAN_POINT('',(-35.,45.,-10.));
#295=VERTEX_POINT('',#294);
#296=CARTESIAN_POINT('',(-35.,-35.,-10.));
#297=DIRECTION('',(-0.,1.,0.));
#298=VECTOR('',#297,80.);
#299=LINE('',#296,#298);
#300=EDGE_CURVE('',#256,#295,#299,.T.);
#301=ORIENTED_EDGE('',*,*,#300,.T.);
#302=CARTESIAN_POINT('',(-35.,45.,-10.));
#303=DIRECTION('',(1.,0.,0.));
#304=VECTOR('',#303,80.);
#305=LINE('',#302,#304);
#306=EDGE_CURVE('',#295,#286,#305,.T.);
#307=ORIENTED_EDGE('',*,*,#306,.T.);
#308=EDGE_LOOP('',(#292,#293,#301,#307));
#309=FACE_BOUND('',#308,.T.);
#310=ADVANCED_FACE('',(#309),#284,.F.);
#311=CARTESIAN_POINT('',(10.,0.,50.));
#312=DIRECTION('',(-1.,0.,0.));
#313=DIRECTION('',(0.,0.,1.));
#314=AXIS2_PLACEMENT_3D('',#311,#312,#313);
#315=PLANE('',#314);
#316=CARTESIAN_POINT('',(10.,10.,0.));
#317=VERTEX_POINT('',#316);
#318=CARTESIAN_POINT('',(10.,0.,0.));
#319=DIRECTION('',(-0.,1.,0.));
#320=VECTOR('',#319,10.);
#321=LINE('',#318,#320);
#322=EDGE_CURVE('',#73,#317,#321,.T.);
#323=ORIENTED_EDGE('',*,*,#322,.T.);
#324=CARTESIAN_POINT('',(10.,10.,50.));
#325=DIRECTION('',(0.,0.,-1.));
#326=VECTOR('',#325,50.);
#327=LINE('',#324,#326);
#328=EDGE_CURVE('',#144,#317,#327,.T.);
#329=ORIENTED_EDGE('',*,*,#328,.F.);
#330=ORIENTED_EDGE('',*,*,#157,.F.);
#331=ORIENTED_EDGE('',*,*,#86,.T.);
#332=EDGE_LOOP('',(#323,#329,#330,#331));
#333=FACE_BOUND('',#332,.T.);
#334=ADVANCED_FACE('',(#333),#315,.F.);
#335=CARTESIAN_POINT('',(0.,10.,50.));
#336=DIRECTION('',(0.,-1.,0.));
#337=DIRECTION('',(0.,0.,-1.));
#338=AXIS2_PLACEMENT_3D('',#335,#336,#337);
#339=PLANE('',#338);
#340=CARTESIAN_POINT('',(10.,10.,0.));
#341=DIRECTION('',(-1.,0.,0.));
#342=VECTOR('',#341,10.);
#343=LINE('',#340,#342);
#344=EDGE_CURVE('',#317,#33,#343,.T.);
#345=ORIENTED_EDGE('',*,*,#344,.T.);
#346=ORIENTED_EDGE('',*,*,#62,.F.);
#347=ORIENTED_EDGE('',*,*,#149,.F.);
#348=ORIENTED_EDGE('',*,*,#328,.T.);
#349=EDGE_LOOP('',(#345,#346,#347,#348));
#350=FACE_BOUND('',#349,.T.);
#351=ADVANCED_FACE('',(#350),#339,.F.);
#352=CARTESIAN_POINT('',(-15.,-15.,60.));
#353=DIRECTION('',(1.,0.,0.));
#354=DIRECTION('',(0.,0.,-1.));
#355=AXIS2_PLACEMENT_3D('',#352,#353,#354);
#356=PLANE('',#355);
#357=ORIENTED_EDGE('',*,*,#169,.T.);
#358=ORIENTED_EDGE('',*,*,#235,.F.);
#359=ORIENTED_EDGE('',*,*,#111,.F.);
#360=ORIENTED_EDGE('',*,*,#206,.T.);
#361=EDGE_LOOP('',(#357,#358,#359,#360));
#362=FACE_BOUND('',#361,.T.);
#363=ADVANCED_FACE('',(#362),#356,.F.);
#364=CARTESIAN_POINT('',(45.,-35.,-10.));
#365=DIRECTION('',(-1.,0.,0.));
#366=DIRECTION('',(0.,0.,1.));
#367=AXIS2_PLACEMENT_3D('',#364,#365,#366);
#368=PLANE('',#367);
#369=CARTESIAN_POINT('',(45.,45.,0.));
#370=VERTEX_POINT('',#369);
#371=CARTESIAN_POINT('',(45.,45.,0.));
#372=DIRECTION('',(0.,-1.,0.));
#373=VECTOR('',#372,80.);
#374=LINE('',#371,#373);
#375=EDGE_CURVE('',#370,#246,#374,.T.);
#376=ORIENTED_EDGE('',*,*,#375,.T.);
#377=ORIENTED_EDGE('',*,*,#275,.F.);
#378=ORIENTED_EDGE('',*,*,#291,.F.);
#379=CARTESIAN_POINT('',(45.,45.,-10.));
#380=DIRECTION('',(0.,-0.,1.));
#381=VECTOR('',#380,10.);
#382=LINE('',#379,#381);
#383=EDGE_CURVE('',#286,#370,#382,.T.);
#384=ORIENTED_EDGE('',*,*,#383,.T.);
#385=EDGE_LOOP('',(#376,#377,#378,#384));
#386=FACE_BOUND('',#385,.T.);
#387=ADVANCED_FACE('',(#386),#368,.F.);
#388=CARTESIAN_POINT('',(45.,45.,-10.));
#389=DIRECTION('',(0.,-1.,0.));
#390=DIRECTION('',(0.,0.,-1.));
#391=AXIS2_PLACEMENT_3D('',#388,#389,#390);
#392=PLANE('',#391);
#393=CARTESIAN_POINT('',(-35.,45.,0.));
#394=VERTEX_POINT('',#393);
#395=CARTESIAN_POINT('',(-35.,45.,0.));
#396=DIRECTION('',(1.,0.,0.));
#397=VECTOR('',#396,80.);
#398=LINE('',#395,#397);
#399=EDGE_CURVE('',#394,#370,#398,.T.);
#400=ORIENTED_EDGE('',*,*,#399,.T.);
#401=ORIENTED_EDGE('',*,*,#383,.F.);
#402=ORIENTED_EDGE('',*,*,#306,.F.);
#403=CARTESIAN_POINT('',(-35.,45.,-10.));
#404=DIRECTION('',(0.,-0.,1.));
#405=VECTOR('',#404,10.);
#406=LINE('',#403,#405);
#407=EDGE_CURVE('',#295,#394,#406,.T.);
#408=ORIENTED_EDGE('',*,*,#407,.T.);
#409=EDGE_LOOP('',(#400,#401,#402,#408));
#410=FACE_BOUND('',#409,.T.);
#411=ADVANCED_FACE('',(#410),#392,.F.);
#412=CARTESIAN_POINT('',(-35.,-35.,-10.));
#413=DIRECTION('',(1.,0.,0.));
#414=DIRECTION('',(0.,0.,-1.));
#415=AXIS2_PLACEMENT_3D('',#412,#413,#414);
#416=PLANE('',#415);
#417=CARTESIAN_POINT('',(-35.,-35.,0.));
#418=DIRECTION('',(-0.,1.,0.));
#419=VECTOR('',#418,80.);
#420=LINE('',#417,#419);
#421=EDGE_CURVE('',#248,#394,#420,.T.);
#422=ORIENTED_EDGE('',*,*,#421,.T.);
#423=ORIENTED_EDGE('',*,*,#407,.F.);
#424=ORIENTED_EDGE('',*,*,#300,.F.);
#425=ORIENTED_EDGE('',*,*,#261,.T.);
#426=EDGE_LOOP('',(#422,#423,#424,#425));
#427=FACE_BOUND('',#426,.T.);
#428=ADVANCED_FACE('',(#427),#416,.F.);
#429=CARTESIAN_POINT('',(0.,0.,0.));
#430=DIRECTION('',(0.,0.,1.));
#431=DIRECTION('',(1.,0.,0.));
#432=AXIS2_PLACEMENT_3D('',#429,#430,#431);
#433=PLANE('',#432);
#434=ORIENTED_EDGE('',*,*,#375,.F.);
#435=ORIENTED_EDGE('',*,*,#399,.F.);
#436=ORIENTED_EDGE('',*,*,#421,.F.);
#437=ORIENTED_EDGE('',*,*,#253,.F.);
#438=EDGE_LOOP('',(#434,#435,#436,#437));
#439=FACE_BOUND('',#438,.T.);
#440=ORIENTED_EDGE('',*,*,#40,.F.);
#441=ORIENTED_EDGE('',*,*,#344,.F.);
#442=ORIENTED_EDGE('',*,*,#322,.F.);
#443=ORIENTED_EDGE('',*,*,#78,.F.);
#444=EDGE_LOOP('',(#440,#441,#442,#443));
#445=FACE_BOUND('',#444,.T.);
#446=ADVANCED_FACE('',(#439,#445),#433,.T.);
#447=CARTESIAN_POINT('',(25.,-15.,60.));
#448=DIRECTION('',(-1.,0.,0.));
#449=DIRECTION('',(0.,0.,1.));
#450=AXIS2_PLACEMENT_3D('',#447,#448,#449);
#451=PLANE('',#450);
#452=ORIENTED_EDGE('',*,*,#185,.T.);
#453=ORIENTED_EDGE('',*,*,#213,.F.);
#454=ORIENTED_EDGE('',*,*,#127,.F.);
#455=ORIENTED_EDGE('',*,*,#228,.T.);
#456=EDGE_LOOP('',(#452,#453,#454,#455));
#457=FACE_BOUND('',#456,.T.);
#458=ADVANCED_FACE('',(#457),#451,.F.);
#459=CLOSED_SHELL('',(#66,#97,#137,#195,#217,#239,#279,#310,#334,#351,#363,#387,#411,#428,#446,#458));
#460=MANIFOLD_SOLID_BREP('Boss-Extrude3',#459);
#461=COLOUR_RGB('',0.776470602,0.75686276,0.737254918);
#462=FILL_AREA_STYLE_COLOUR('',#461);
#463=FILL_AREA_STYLE('',(#462));
#464=SURFACE_STYLE_FILL_AREA(#463);
#465=SURFACE_SIDE_STYLE('',(#464));
#466=SURFACE_STYLE_USAGE(.BOTH.,#465);
#467=PRESENTATION_STYLE_ASSIGNMENT((#466));
#26=STYLED_ITEM('',(#467),#460);
#468=PRESENTATION_STYLE_ASSIGNMENT((NULL_STYLE(.NULL.)));
#469=STYLED_ITEM('',(#468),#351);
#470=COLOUR_RGB('',0.485882342,0.068627454,0.068627454);
#471=FILL_AREA_STYLE_COLOUR('',#470);
#472=FILL_AREA_STYLE('',(#471));
#473=SURFACE_STYLE_FILL_AREA(#472);
#474=SURFACE_SIDE_STYLE('',(#473));
#475=SURFACE_STYLE_USAGE(.BOTH.,#474);
#476=PRESENTATION_STYLE_ASSIGNMENT((#475));
#477=OVER_RIDING_STYLED_ITEM('',(#476),#351,#469);
#478=STYLED_ITEM('',(#468),#334);
#479=OVER_RIDING_STYLED_ITEM('',(#476),#334,#478);
#480=STYLED_ITEM('',(#468),#97);
#481=OVER_RIDING_STYLED_ITEM('',(#476),#97,#480);
#482=STYLED_ITEM('',(#468),#66);
#483=OVER_RIDING_STYLED_ITEM('',(#476),#66,#482);
#484=STYLED_ITEM('',(#468),#310);
#485=COLOUR_RGB('',0.200392157,0.463921577,0.230588242);
#486=FILL_AREA_STYLE_COLOUR('',#485);
#487=FILL_AREA_STYLE('',(#486));
#488=SURFACE_STYLE_FILL_AREA(#487);
#489=SURFACE_SIDE_STYLE('',(#488));
#490=SURFACE_STYLE_USAGE(.BOTH.,#489);
#491=PRESENTATION_STYLE_ASSIGNMENT((#490));
#492=OVER_RIDING_STYLED_ITEM('',(#491),#310,#484);
#493=STYLED_ITEM('',(#468),#411);
#494=OVER_RIDING_STYLED_ITEM('',(#491),#411,#493);
#495=STYLED_ITEM('',(#468),#428);
#496=OVER_RIDING_STYLED_ITEM('',(#491),#428,#495);
#497=STYLED_ITEM('',(#468),#279);
#498=OVER_RIDING_STYLED_ITEM('',(#491),#279,#497);
#499=STYLED_ITEM('',(#468),#387);
#500=OVER_RIDING_STYLED_ITEM('',(#491),#387,#499);
#501=STYLED_ITEM('',(#468),#446);
#502=OVER_RIDING_STYLED_ITEM('',(#491),#446,#501);
#503=STYLED_ITEM('',(#468),#195);
#504=COLOUR_RGB('',0.005490196,0.167450979,0.576470613);
#505=FILL_AREA_STYLE_COLOUR('',#504);
#506=FILL_AREA_STYLE('',(#505));
#507=SURFACE_STYLE_FILL_AREA(#506);
#508=SURFACE_SIDE_STYLE('',(#507));
#509=SURFACE_STYLE_USAGE(.BOTH.,#508);
#510=PRESENTATION_STYLE_ASSIGNMENT((#509));
#511=OVER_RIDING_STYLED_ITEM('',(#510),#195,#503);
#512=STYLED_ITEM('',(#468),#137);
#513=OVER_RIDING_STYLED_ITEM('',(#510),#137,#512);
#514=STYLED_ITEM('',(#468),#217);
#515=OVER_RIDING_STYLED_ITEM('',(#510),#217,#514);
#516=STYLED_ITEM('',(#468),#458);
#517=OVER_RIDING_STYLED_ITEM('',(#510),#458,#516);
#518=STYLED_ITEM('',(#468),#239);
#519=OVER_RIDING_STYLED_ITEM('',(#510),#239,#518);
#520=STYLED_ITEM('',(#468),#363);
#521=OVER_RIDING_STYLED_ITEM('',(#510),#363,#520);
#16=SHAPE_REPRESENTATION('Default',(#15),#10);
#17=ADVANCED_BREP_SHAPE_REPRESENTATION('Default',(#460),#10);
#529=SHAPE_REPRESENTATION_RELATIONSHIP('','',#16,#17);
#530=CARTESIAN_POINT('',(0.,0.,0.));
#531=DIRECTION('',(0.,0.,1.));
#532=DIRECTION('',(1.,0.,0.));
#533=AXIS2_PLACEMENT_3D('',#530,#531,#532);
#535=MAPPED_ITEM('',#534,#533);
#534=REPRESENTATION_MAP(#533,#16);
#536=APPLICATION_CONTEXT('Managed model based 3d engineering');
#537=APPLICATION_PROTOCOL_DEFINITION('international standard','ap242_managed_model_based_3d_engineering',2022,#536);
#538=PRODUCT_CONTEXT('',#536,'mechanical');
#539=PRODUCT_DEFINITION_CONTEXT('part definition',#536,'design');
#24=PRODUCT('Default','Default','',(#538));
#540=PRODUCT_RELATED_PRODUCT_CATEGORY('part','',(#24));
#541=PRODUCT_DEFINITION_FORMATION_WITH_SPECIFIED_SOURCE('','',#24,.NOT_KNOWN.);
#25=PRODUCT_DEFINITION('design','',#541,#539);
#23=PRODUCT_DEFINITION_SHAPE('','',#25);
#542=SHAPE_DEFINITION_REPRESENTATION(#23,#16);
#11=DRAUGHTING_MODEL('',(#535),#10);
#543=DESCRIPTIVE_REPRESENTATION_ITEM('Material','SW-MATERIAL');
#544=PROPERTY_DEFINITION('Custom Properties','',#25);
#545=REPRESENTATION('',(#543),#10);
#546=PROPERTY_DEFINITION_REPRESENTATION(#544,#545);
#547=GENERAL_PROPERTY('','Custom Properties','');
#548=GENERAL_PROPERTY_ASSOCIATION('','',#547,#544);
#550=CARTESIAN_POINT('',(5.,5.,25.));
#551=DIRECTION('',(-0.096130921,0.92908191,0.35716334));
#552=DIRECTION('',(-0.585629929,0.23735455,-0.775048646));
#553=AXIS2_PLACEMENT_3D('Current Model View',#550,#551,#552);
#554=CARTESIAN_POINT('',(-183.489543212,-166.846491518,503.473813368));
#555=DIRECTION('',(-0.096130921,0.92908191,0.35716334));
#556=DIRECTION('',(-0.585629929,0.23735455,-0.775048646));
#557=AXIS2_PLACEMENT_3D('Current Model View',#554,#555,#556);
#559=CARTESIAN_POINT('Current Model View',(-33.884651507,463.976931829,193.591752297));
#560=PLANAR_BOX('',326.834838867,326.834838867,#557);
#558=VIEW_VOLUME(.PARALLEL.,#559,490.379974365,0.,.F.,0.,.F.,.F.,#560);
#549=CAMERA_MODEL_D3('Current Model View',#553,#558);
#561=DRAUGHTING_MODEL('Current Model View',(#549),#10);
#562=MECHANICAL_DESIGN_AND_DRAUGHTING_RELATIONSHIP('Current Model View','',#561,#11);
#1=MECHANICAL_DESIGN_GEOMETRIC_PRESENTATION_REPRESENTATION('',(#26,#469,#477,#478,#479,#480,#481,#482,#483,#484,#492,#493,#494,#495,#496,#497,#498,#499,#500,#501,#502,#503,#511,#512,#513,#514,
#515,#516,#517,#518,#519,#520,#521),#10);
ENDSEC;
END-ISO-10303-21;
