ISO-10303-21;
HEADER;

/* File generated by SOLIDWORKS MBD Version 2025 */

FILE_DESCRIPTION(('HOOPS Exchange Step'),'2;1');

FILE_NAME('C:\\Users\\p01609jt\\OneDrive - The University of Manchester\\Internship\\COLOURBALL.STP',
'2026-07-03T11:52:46+01:00',
('p01609jt'),
('None'),
'HOOPS Exchange 2024.8',
'SOLIDWORKS MBD',
'None');

FILE_SCHEMA( ('AP242_MANAGED_MODEL_BASED_3D_ENGINEERING_MIM_LF {1 0 10303 442 4 1 4}') );

ENDSEC;

DATA;
#3=(NAMED_UNIT(*)PLANE_ANGLE_UNIT()SI_UNIT($,.RADIAN.));
#4=PLANE_ANGLE_MEASURE_WITH_UNIT(PLANE_ANGLE_MEASURE(0.0174532925),#3);
#5=(CONVERSION_BASED_UNIT('DEGREE',#4)NAMED_UNIT(#6)PLANE_ANGLE_UNIT());
#6=DIMENSIONAL_EXPONENTS(0.,0.,0.,0.,0.,0.,0.);
#7=(NAMED_UNIT(*)SI_UNIT($,.STERADIAN.)SOLID_ANGLE_UNIT());
#8=(LENGTH_UNIT()NAMED_UNIT(*)SI_UNIT(.MILLI.,.METRE.));
#9=UNCERTAINTY_MEASURE_WITH_UNIT(LENGTH_MEASURE(1.000000E-03),#8,'DISTANCE_ACCURACY_VALUE','Maximum Tolerance applied to model');
#10=(GEOMETRIC_REPRESENTATION_CONTEXT(3)GLOBAL_UNCERTAINTY_ASSIGNED_CONTEXT((#9))GLOBAL_UNIT_ASSIGNED_CONTEXT((#8,#5,#7))REPRESENTATION_CONTEXT('','Default'));
#12=CARTESIAN_POINT('',(0.,0.,0.));
#13=DIRECTION('',(0.,0.,1.));
#14=DIRECTION('',(1.,0.,0.));
#15=AXIS2_PLACEMENT_3D('',#12,#13,#14);
#27=CARTESIAN_POINT('',(0.,0.,0.));
#28=DIRECTION('',(-0.,1.,0.));
#29=DIRECTION('',(1.,0.,0.));
#30=AXIS2_PLACEMENT_3D('',#27,#28,#29);
#31=SPHERICAL_SURFACE('',#30,30.);
#32=CARTESIAN_POINT('',(-15.725190648,-15.725190648,20.135460217));
#33=VERTEX_POINT('',#32);
#34=CARTESIAN_POINT('',(-15.725190648,15.725190648,20.135460217));
#35=VERTEX_POINT('',#34);
#36=CARTESIAN_POINT('',(-15.725190648,0.,0.));
#37=DIRECTION('',(-1.,0.,0.));
#38=DIRECTION('',(0.,-0.615507003,0.788131416));
#39=AXIS2_PLACEMENT_3D('',#36,#37,#38);
#40=CIRCLE('',#39,25.548353745);
#41=EDGE_CURVE('',#33,#35,#40,.T.);
#42=ORIENTED_EDGE('',*,*,#41,.T.);
#43=CARTESIAN_POINT('',(15.725190648,15.725190648,20.135460217));
#44=VERTEX_POINT('',#43);
#45=CARTESIAN_POINT('',(0.,15.725190648,0.));
#46=DIRECTION('',(0.,1.,0.));
#47=DIRECTION('',(-0.615507003,0.,0.788131416));
#48=AXIS2_PLACEMENT_3D('',#45,#46,#47);
#49=CIRCLE('',#48,25.548353745);
#50=EDGE_CURVE('',#35,#44,#49,.T.);
#51=ORIENTED_EDGE('',*,*,#50,.T.);
#52=CARTESIAN_POINT('',(15.725190648,-15.725190648,20.135460217));
#53=VERTEX_POINT('',#52);
#54=CARTESIAN_POINT('',(15.725190648,0.,0.));
#55=DIRECTION('',(1.,0.,-0.));
#56=DIRECTION('',(0.,0.615507003,0.788131416));
#57=AXIS2_PLACEMENT_3D('',#54,#55,#56);
#58=CIRCLE('',#57,25.548353745);
#59=EDGE_CURVE('',#44,#53,#58,.T.);
#60=ORIENTED_EDGE('',*,*,#59,.T.);
#61=CARTESIAN_POINT('',(0.,-15.725190648,0.));
#62=DIRECTION('',(0.,-1.,0.));
#63=DIRECTION('',(0.615507003,0.,0.788131416));
#64=AXIS2_PLACEMENT_3D('',#61,#62,#63);
#65=CIRCLE('',#64,25.548353745);
#66=EDGE_CURVE('',#53,#33,#65,.T.);
#67=ORIENTED_EDGE('',*,*,#66,.T.);
#68=EDGE_LOOP('',(#42,#51,#60,#67));
#69=FACE_BOUND('',#68,.T.);
#70=CARTESIAN_POINT('',(-15.725190648,15.725190648,-20.135460217));
#71=VERTEX_POINT('',#70);
#72=CARTESIAN_POINT('',(-15.725190648,-15.725190648,-20.135460217));
#73=VERTEX_POINT('',#72);
#74=CARTESIAN_POINT('',(-15.725190648,0.,0.));
#75=DIRECTION('',(-1.,0.,0.));
#76=DIRECTION('',(0.,0.615507003,-0.788131416));
#77=AXIS2_PLACEMENT_3D('',#74,#75,#76);
#78=CIRCLE('',#77,25.548353745);
#79=EDGE_CURVE('',#71,#73,#78,.T.);
#80=ORIENTED_EDGE('',*,*,#79,.T.);
#81=CARTESIAN_POINT('',(15.725190648,-15.725190648,-20.135460217));
#82=VERTEX_POINT('',#81);
#83=CARTESIAN_POINT('',(0.,-15.725190648,0.));
#84=DIRECTION('',(0.,-1.,-0.));
#85=DIRECTION('',(-0.615507003,0.,-0.788131416));
#86=AXIS2_PLACEMENT_3D('',#83,#84,#85);
#87=CIRCLE('',#86,25.548353745);
#88=EDGE_CURVE('',#73,#82,#87,.T.);
#89=ORIENTED_EDGE('',*,*,#88,.T.);
#90=CARTESIAN_POINT('',(15.725190648,15.725190648,-20.135460217));
#91=VERTEX_POINT('',#90);
#92=CARTESIAN_POINT('',(15.725190648,0.,0.));
#93=DIRECTION('',(1.,0.,0.));
#94=DIRECTION('',(0.,-0.615507003,-0.788131416));
#95=AXIS2_PLACEMENT_3D('',#92,#93,#94);
#96=CIRCLE('',#95,25.548353745);
#97=EDGE_CURVE('',#82,#91,#96,.T.);
#98=ORIENTED_EDGE('',*,*,#97,.T.);
#99=CARTESIAN_POINT('',(0.,15.725190648,0.));
#100=DIRECTION('',(0.,1.,0.));
#101=DIRECTION('',(0.615507003,0.,-0.788131416));
#102=AXIS2_PLACEMENT_3D('',#99,#100,#101);
#103=CIRCLE('',#102,25.548353745);
#104=EDGE_CURVE('',#91,#71,#103,.T.);
#105=ORIENTED_EDGE('',*,*,#104,.T.);
#106=EDGE_LOOP('',(#80,#89,#98,#105));
#107=FACE_BOUND('',#106,.T.);
#108=CARTESIAN_POINT('',(0.,30.,0.));
#109=VERTEX_POINT('',#108);
#110=CARTESIAN_POINT('',(-0.,-30.,0.));
#111=VERTEX_POINT('',#110);
#112=CARTESIAN_POINT('',(0.,0.,0.));
#113=DIRECTION('',(-0.,-0.,-1.));
#114=DIRECTION('',(1.,0.,0.));
#115=AXIS2_PLACEMENT_3D('',#112,#113,#114);
#116=CIRCLE('',#115,30.);
#117=EDGE_CURVE('',#109,#111,#116,.T.);
#118=ORIENTED_EDGE('',*,*,#117,.T.);
#119=ORIENTED_EDGE('',*,*,#117,.F.);
#120=EDGE_LOOP('',(#118,#119));
#121=FACE_BOUND('',#120,.T.);
#122=ADVANCED_FACE('',(#69,#107,#121),#31,.T.);
#123=CARTESIAN_POINT('',(0.,0.,0.));
#124=DIRECTION('',(-0.,1.,0.));
#125=DIRECTION('',(1.,0.,0.));
#126=AXIS2_PLACEMENT_3D('',#123,#124,#125);
#127=SPHERICAL_SURFACE('',#126,30.);
#128=ORIENTED_EDGE('',*,*,#59,.F.);
#129=ORIENTED_EDGE('',*,*,#50,.F.);
#130=ORIENTED_EDGE('',*,*,#41,.F.);
#131=ORIENTED_EDGE('',*,*,#66,.F.);
#132=EDGE_LOOP('',(#128,#129,#130,#131));
#133=FACE_BOUND('',#132,.T.);
#134=ADVANCED_FACE('',(#133),#127,.T.);
#135=CARTESIAN_POINT('',(0.,0.,0.));
#136=DIRECTION('',(-0.,1.,0.));
#137=DIRECTION('',(1.,0.,0.));
#138=AXIS2_PLACEMENT_3D('',#135,#136,#137);
#139=SPHERICAL_SURFACE('',#138,30.);
#140=ORIENTED_EDGE('',*,*,#97,.F.);
#141=ORIENTED_EDGE('',*,*,#88,.F.);
#142=ORIENTED_EDGE('',*,*,#79,.F.);
#143=ORIENTED_EDGE('',*,*,#104,.F.);
#144=EDGE_LOOP('',(#140,#141,#142,#143));
#145=FACE_BOUND('',#144,.T.);
#146=ADVANCED_FACE('',(#145),#139,.T.);
#147=CLOSED_SHELL('',(#122,#134,#146));
#148=MANIFOLD_SOLID_BREP('Split Line1',#147);
#149=PRESENTATION_STYLE_ASSIGNMENT((NULL_STYLE(.NULL.)));
#26=STYLED_ITEM('',(#149),#148);
#150=STYLED_ITEM('',(#149),#134);
#151=COLOUR_RGB('',0.062745102,0.17568627,0.552156866);
#152=FILL_AREA_STYLE_COLOUR('',#151);
#153=FILL_AREA_STYLE('',(#152));
#154=SURFACE_STYLE_FILL_AREA(#153);
#155=SURFACE_SIDE_STYLE('',(#154));
#156=SURFACE_STYLE_USAGE(.BOTH.,#155);
#157=PRESENTATION_STYLE_ASSIGNMENT((#156));
#158=OVER_RIDING_STYLED_ITEM('',(#157),#134,#150);
#159=STYLED_ITEM('',(#149),#122);
#160=COLOUR_RGB('',0.839215696,0.450980395,0.388235301);
#161=FILL_AREA_STYLE_COLOUR('',#160);
#162=FILL_AREA_STYLE('',(#161));
#163=SURFACE_STYLE_FILL_AREA(#162);
#164=SURFACE_SIDE_STYLE('',(#163));
#165=SURFACE_STYLE_USAGE(.BOTH.,#164);
#166=PRESENTATION_STYLE_ASSIGNMENT((#165));
#167=OVER_RIDING_STYLED_ITEM('',(#166),#122,#159);
#168=STYLED_ITEM('',(#149),#146);
#169=COLOUR_RGB('',1.,0.807843149,0.498039216);
#170=FILL_AREA_STYLE_COLOUR('',#169);
#171=FILL_AREA_STYLE('',(#170));
#172=SURFACE_STYLE_FILL_AREA(#171);
#173=SURFACE_SIDE_STYLE('',(#172));
#174=SURFACE_STYLE_USAGE(.BOTH.,#173);
#175=PRESENTATION_STYLE_ASSIGNMENT((#174));
#176=OVER_RIDING_STYLED_ITEM('',(#175),#146,#168);
#16=SHAPE_REPRESENTATION('Default',(#15),#10);
#17=ADVANCED_BREP_SHAPE_REPRESENTATION('Default',(#148),#10);
#184=SHAPE_REPRESENTATION_RELATIONSHIP('','',#16,#17);
#185=CARTESIAN_POINT('',(0.,0.,0.));
#186=DIRECTION('',(0.,0.,1.));
#187=DIRECTION('',(1.,0.,0.));
#188=AXIS2_PLACEMENT_3D('',#185,#186,#187);
#190=MAPPED_ITEM('',#189,#188);
#189=REPRESENTATION_MAP(#188,#16);
#191=APPLICATION_CONTEXT('Managed model based 3d engineering');
#192=APPLICATION_PROTOCOL_DEFINITION('international standard','ap242_managed_model_based_3d_engineering',2022,#191);
#193=PRODUCT_CONTEXT('',#191,'mechanical');
#194=PRODUCT_DEFINITION_CONTEXT('part definition',#191,'design');
#24=PRODUCT('Default','Default','',(#193));
#195=PRODUCT_RELATED_PRODUCT_CATEGORY('part','',(#24));
#196=PRODUCT_DEFINITION_FORMATION_WITH_SPECIFIED_SOURCE('','',#24,.NOT_KNOWN.);
#25=PRODUCT_DEFINITION('design','',#196,#194);
#23=PRODUCT_DEFINITION_SHAPE('','',#25);
#197=SHAPE_DEFINITION_REPRESENTATION(#23,#16);
#11=DRAUGHTING_MODEL('',(#190),#10);
#199=CARTESIAN_POINT('',(0.,0.,0.));
#200=DIRECTION('',(-0.872620966,0.019377721,-0.488013477));
#201=DIRECTION('',(-0.482957833,0.114487469,0.868126921));
#202=AXIS2_PLACEMENT_3D('Current Model View',#199,#200,#201);
#203=CARTESIAN_POINT('',(-70.505128362,-62.998823296,226.412990145));
#204=DIRECTION('',(-0.872620966,0.019377721,-0.488013477));
#205=DIRECTION('',(-0.482957833,0.114487469,0.868126921));
#206=AXIS2_PLACEMENT_3D('Current Model View',#203,#204,#205);
#208=CARTESIAN_POINT('Current Model View',(-194.218537467,4.259816194,-116.495300903));
#209=PLANAR_BOX('',127.318962097,127.318962097,#206);
#207=VIEW_VOLUME(.PARALLEL.,#208,228.853057861,0.,.F.,0.,.F.,.F.,#209);
#198=CAMERA_MODEL_D3('Current Model View',#202,#207);
#210=DRAUGHTING_MODEL('Current Model View',(#198),#10);
#211=MECHANICAL_DESIGN_AND_DRAUGHTING_RELATIONSHIP('Current Model View','',#210,#11);
#1=MECHANICAL_DESIGN_GEOMETRIC_PRESENTATION_REPRESENTATION('',(#26,#150,#158,#159,#167,#168,#176),#10);
ENDSEC;
END-ISO-10303-21;
